<?xml version="1.0" encoding="UTF-8" standalone="no"?>
<svg width="64px" height="64px" viewBox="0 0 64 64" version="1.1" xmlns="http://www.w3.org/2000/svg" xmlns:xlink="http://www.w3.org/1999/xlink" xmlns:sketch="http://www.bohemiancoding.com/sketch/ns">
    <!-- Generator: Sketch 3.4.2 (15855) - http://www.bohemiancoding.com/sketch -->
    <title>Logo</title>
    <desc>Created with Sketch.</desc>
    <defs></defs>
    <g id="Page-1" stroke="none" stroke-width="1" fill="none" fill-rule="evenodd" sketch:type="MSPage">
        <g id="Logo" sketch:type="MSLayerGroup">
            <rect id="Rectangle-1" fill="#CACED3" sketch:type="MSShapeGroup" x="0" y="0" width="64" height="64"></rect>
            <g id="Group" transform="translate(9.000000, 9.000000)" fill="#000000" sketch:type="MSShapeGroup">
                <path d="M5.11111111,14.6944444 C4.75844444,14.6944444 4.47222222,14.9806667 4.47222222,15.3333333 C4.47222222,15.686 4.75844444,15.9722222 5.11111111,15.9722222 L10.2222222,15.9722222 C10.5748889,15.9722222 10.8611111,15.686 10.8611111,15.3333333 C10.8611111,14.9806667 10.5748889,14.6944444 10.2222222,14.6944444 L8.30555556,14.6944444 L8.30555556,5.75 L10.2222222,5.75 C10.5748889,5.75 10.8611111,5.46377778 10.8611111,5.11111111 C10.8611111,4.75844444 10.5748889,4.47222222 10.2222222,4.47222222 L5.11111111,4.47222222 C4.75844444,4.47222222 4.47222222,4.75844444 4.47222222,5.11111111 C4.47222222,5.46377778 4.75844444,5.75 5.11111111,5.75 L7.02777778,5.75 L7.02777778,14.6944444 L5.11111111,14.6944444 L5.11111111,14.6944444 Z" id="Shape"></path>
                <path d="M44.7222222,0 L1.27777778,0 C0.571933333,0 0,0.571933333 0,1.27777778 L0,44.7222222 C0,45.4280667 0.571933333,46 1.27777778,46 L44.7222222,46 C45.4280667,46 46,45.4280667 46,44.7222222 L46,1.27777778 C46,0.571933333 45.4280667,0 44.7222222,0 L44.7222222,0 Z M29.3888889,43.4444444 L2.55555556,43.4444444 L2.55555556,2.55555556 L29.3888889,2.55555556 L29.3888889,43.4444444 L29.3888889,43.4444444 Z M43.4444444,43.4444444 L30.6666667,43.4444444 L30.6666667,2.55555556 L43.4444444,2.55555556 L43.4444444,43.4444444 L43.4444444,43.4444444 Z" id="Shape"></path>
                <path d="M36.6037333,40.7018222 C36.7284444,40.8265333 36.892,40.8888889 37.0555556,40.8888889 C37.2191111,40.8888889 37.3826667,40.8265333 37.5073778,40.7018222 L40.0629333,38.1462667 C40.2454,37.9638 40.3000889,37.6888222 40.2014444,37.4501333 C40.1022889,37.2114444 39.8692222,37.0555556 39.6111111,37.0555556 L34.5,37.0555556 C34.2418889,37.0555556 34.0088222,37.2114444 33.9096667,37.4496222 C33.8110222,37.6883111 33.8657111,37.9632889 34.0481778,38.1457556 L36.6037333,40.7018222 L36.6037333,40.7018222 Z" id="Shape"></path>
                <path d="M34.5,8.94444444 L39.6111111,8.94444444 C39.6146889,8.94393333 39.6177556,8.94444444 39.6213333,8.94444444 C39.974,8.94444444 40.2602222,8.65822222 40.2602222,8.30555556 C40.2602222,8.09446667 40.158,7.9074 40.0000667,7.79086667 L37.5073778,5.29817778 C37.2579556,5.04875556 36.8536667,5.04875556 36.6037333,5.29817778 L34.0481778,7.85373333 C33.8657111,8.0362 33.8110222,8.31117778 33.9096667,8.54986667 C34.0088222,8.78855556 34.2418889,8.94444444 34.5,8.94444444 L34.5,8.94444444 Z" id="Shape"></path>
            </g>
        </g>
    </g>
</svg>